<mxfile host="app.diagrams.net" modified="2023-10-26T07:46:13.669Z" agent="Mozilla/5.0 (Macintosh; Intel Mac OS X 10_15_7) AppleWebKit/537.36 (KHTML, like Gecko) Chrome/114.0.0.0 Safari/537.36" etag="ctQGhFIN2DDbD8zZu9SG" version="22.0.8" type="device">
  <diagram name="Page-1" id="tSSKBhH5_sOowGoWzouN">
    <mxGraphModel dx="1405" dy="729" grid="1" gridSize="10" guides="1" tooltips="1" connect="1" arrows="1" fold="1" page="1" pageScale="1" pageWidth="827" pageHeight="1169" math="0" shadow="0">
      <root>
        <mxCell id="0" />
        <mxCell id="1" parent="0" />
        <mxCell id="QUsurqt3QCAF3f5tLPC3-1" value="signup" style="swimlane;fontStyle=0;childLayout=stackLayout;horizontal=1;startSize=26;fillColor=default;horizontalStack=0;resizeParent=1;resizeLast=0;collapsible=1;marginBottom=0;swimlaneFillColor=default;align=center;" vertex="1" parent="1">
          <mxGeometry x="40" y="40" width="170" height="312" as="geometry" />
        </mxCell>
        <mxCell id="QUsurqt3QCAF3f5tLPC3-2" value="formno" style="shape=partialRectangle;top=0;left=0;right=0;bottom=0;align=left;verticalAlign=top;spacingTop=-2;fillColor=none;spacingLeft=64;spacingRight=4;overflow=hidden;rotatable=0;points=[[0,0.5],[1,0.5]];portConstraint=eastwest;dropTarget=0;" vertex="1" parent="QUsurqt3QCAF3f5tLPC3-1">
          <mxGeometry y="26" width="170" height="26" as="geometry" />
        </mxCell>
        <mxCell id="QUsurqt3QCAF3f5tLPC3-3" value="" style="shape=partialRectangle;top=0;left=0;bottom=0;fillColor=none;align=left;verticalAlign=middle;spacingLeft=4;spacingRight=4;overflow=hidden;rotatable=180;points=[];portConstraint=eastwest;part=1;" vertex="1" connectable="0" parent="QUsurqt3QCAF3f5tLPC3-2">
          <mxGeometry width="54" height="26" as="geometry" />
        </mxCell>
        <mxCell id="QUsurqt3QCAF3f5tLPC3-4" value="name" style="shape=partialRectangle;top=0;left=0;right=0;bottom=0;align=left;verticalAlign=top;spacingTop=-2;fillColor=none;spacingLeft=64;spacingRight=4;overflow=hidden;rotatable=0;points=[[0,0.5],[1,0.5]];portConstraint=eastwest;dropTarget=0;" vertex="1" parent="QUsurqt3QCAF3f5tLPC3-1">
          <mxGeometry y="52" width="170" height="26" as="geometry" />
        </mxCell>
        <mxCell id="QUsurqt3QCAF3f5tLPC3-5" value="" style="shape=partialRectangle;top=0;left=0;bottom=0;fillColor=none;align=left;verticalAlign=middle;spacingLeft=4;spacingRight=4;overflow=hidden;rotatable=180;points=[];portConstraint=eastwest;part=1;" vertex="1" connectable="0" parent="QUsurqt3QCAF3f5tLPC3-4">
          <mxGeometry width="54" height="26" as="geometry" />
        </mxCell>
        <mxCell id="QUsurqt3QCAF3f5tLPC3-6" value="father_name" style="shape=partialRectangle;top=0;left=0;right=0;bottom=0;align=left;verticalAlign=top;spacingTop=-2;fillColor=none;spacingLeft=64;spacingRight=4;overflow=hidden;rotatable=0;points=[[0,0.5],[1,0.5]];portConstraint=eastwest;dropTarget=0;" vertex="1" parent="QUsurqt3QCAF3f5tLPC3-1">
          <mxGeometry y="78" width="170" height="26" as="geometry" />
        </mxCell>
        <mxCell id="QUsurqt3QCAF3f5tLPC3-7" value="" style="shape=partialRectangle;top=0;left=0;bottom=0;fillColor=none;align=left;verticalAlign=middle;spacingLeft=4;spacingRight=4;overflow=hidden;rotatable=180;points=[];portConstraint=eastwest;part=1;" vertex="1" connectable="0" parent="QUsurqt3QCAF3f5tLPC3-6">
          <mxGeometry width="54" height="26" as="geometry" />
        </mxCell>
        <mxCell id="QUsurqt3QCAF3f5tLPC3-8" value="dob" style="shape=partialRectangle;top=0;left=0;right=0;bottom=0;align=left;verticalAlign=top;spacingTop=-2;fillColor=none;spacingLeft=64;spacingRight=4;overflow=hidden;rotatable=0;points=[[0,0.5],[1,0.5]];portConstraint=eastwest;dropTarget=0;" vertex="1" parent="QUsurqt3QCAF3f5tLPC3-1">
          <mxGeometry y="104" width="170" height="26" as="geometry" />
        </mxCell>
        <mxCell id="QUsurqt3QCAF3f5tLPC3-9" value="" style="shape=partialRectangle;top=0;left=0;bottom=0;fillColor=none;align=left;verticalAlign=middle;spacingLeft=4;spacingRight=4;overflow=hidden;rotatable=180;points=[];portConstraint=eastwest;part=1;" vertex="1" connectable="0" parent="QUsurqt3QCAF3f5tLPC3-8">
          <mxGeometry width="54" height="26" as="geometry" />
        </mxCell>
        <mxCell id="QUsurqt3QCAF3f5tLPC3-10" value="gender" style="shape=partialRectangle;top=0;left=0;right=0;bottom=0;align=left;verticalAlign=top;spacingTop=-2;fillColor=none;spacingLeft=64;spacingRight=4;overflow=hidden;rotatable=0;points=[[0,0.5],[1,0.5]];portConstraint=eastwest;dropTarget=0;" vertex="1" parent="QUsurqt3QCAF3f5tLPC3-1">
          <mxGeometry y="130" width="170" height="26" as="geometry" />
        </mxCell>
        <mxCell id="QUsurqt3QCAF3f5tLPC3-11" value="" style="shape=partialRectangle;top=0;left=0;bottom=0;fillColor=none;align=left;verticalAlign=middle;spacingLeft=4;spacingRight=4;overflow=hidden;rotatable=180;points=[];portConstraint=eastwest;part=1;" vertex="1" connectable="0" parent="QUsurqt3QCAF3f5tLPC3-10">
          <mxGeometry width="54" height="26" as="geometry" />
        </mxCell>
        <mxCell id="QUsurqt3QCAF3f5tLPC3-12" value="email" style="shape=partialRectangle;top=0;left=0;right=0;bottom=0;align=left;verticalAlign=top;spacingTop=-2;fillColor=none;spacingLeft=64;spacingRight=4;overflow=hidden;rotatable=0;points=[[0,0.5],[1,0.5]];portConstraint=eastwest;dropTarget=0;" vertex="1" parent="QUsurqt3QCAF3f5tLPC3-1">
          <mxGeometry y="156" width="170" height="26" as="geometry" />
        </mxCell>
        <mxCell id="QUsurqt3QCAF3f5tLPC3-13" value="" style="shape=partialRectangle;top=0;left=0;bottom=0;fillColor=none;align=left;verticalAlign=middle;spacingLeft=4;spacingRight=4;overflow=hidden;rotatable=180;points=[];portConstraint=eastwest;part=1;" vertex="1" connectable="0" parent="QUsurqt3QCAF3f5tLPC3-12">
          <mxGeometry width="54" height="26" as="geometry" />
        </mxCell>
        <mxCell id="QUsurqt3QCAF3f5tLPC3-14" value="marital_status" style="shape=partialRectangle;top=0;left=0;right=0;bottom=0;align=left;verticalAlign=top;spacingTop=-2;fillColor=none;spacingLeft=64;spacingRight=4;overflow=hidden;rotatable=0;points=[[0,0.5],[1,0.5]];portConstraint=eastwest;dropTarget=0;" vertex="1" parent="QUsurqt3QCAF3f5tLPC3-1">
          <mxGeometry y="182" width="170" height="26" as="geometry" />
        </mxCell>
        <mxCell id="QUsurqt3QCAF3f5tLPC3-15" value="" style="shape=partialRectangle;top=0;left=0;bottom=0;fillColor=none;align=left;verticalAlign=middle;spacingLeft=4;spacingRight=4;overflow=hidden;rotatable=180;points=[];portConstraint=eastwest;part=1;" vertex="1" connectable="0" parent="QUsurqt3QCAF3f5tLPC3-14">
          <mxGeometry width="54" height="26" as="geometry" />
        </mxCell>
        <mxCell id="QUsurqt3QCAF3f5tLPC3-16" value="address" style="shape=partialRectangle;top=0;left=0;right=0;bottom=0;align=left;verticalAlign=top;spacingTop=-2;fillColor=none;spacingLeft=64;spacingRight=4;overflow=hidden;rotatable=0;points=[[0,0.5],[1,0.5]];portConstraint=eastwest;dropTarget=0;" vertex="1" parent="QUsurqt3QCAF3f5tLPC3-1">
          <mxGeometry y="208" width="170" height="26" as="geometry" />
        </mxCell>
        <mxCell id="QUsurqt3QCAF3f5tLPC3-17" value="" style="shape=partialRectangle;top=0;left=0;bottom=0;fillColor=none;align=left;verticalAlign=middle;spacingLeft=4;spacingRight=4;overflow=hidden;rotatable=180;points=[];portConstraint=eastwest;part=1;" vertex="1" connectable="0" parent="QUsurqt3QCAF3f5tLPC3-16">
          <mxGeometry width="54" height="26" as="geometry" />
        </mxCell>
        <mxCell id="QUsurqt3QCAF3f5tLPC3-18" value="city" style="shape=partialRectangle;top=0;left=0;right=0;bottom=0;align=left;verticalAlign=top;spacingTop=-2;fillColor=none;spacingLeft=64;spacingRight=4;overflow=hidden;rotatable=0;points=[[0,0.5],[1,0.5]];portConstraint=eastwest;dropTarget=0;" vertex="1" parent="QUsurqt3QCAF3f5tLPC3-1">
          <mxGeometry y="234" width="170" height="26" as="geometry" />
        </mxCell>
        <mxCell id="QUsurqt3QCAF3f5tLPC3-19" value="" style="shape=partialRectangle;top=0;left=0;bottom=0;fillColor=none;align=left;verticalAlign=middle;spacingLeft=4;spacingRight=4;overflow=hidden;rotatable=180;points=[];portConstraint=eastwest;part=1;" vertex="1" connectable="0" parent="QUsurqt3QCAF3f5tLPC3-18">
          <mxGeometry width="54" height="26" as="geometry" />
        </mxCell>
        <mxCell id="QUsurqt3QCAF3f5tLPC3-20" value="pincode" style="shape=partialRectangle;top=0;left=0;right=0;bottom=0;align=left;verticalAlign=top;spacingTop=-2;fillColor=none;spacingLeft=64;spacingRight=4;overflow=hidden;rotatable=0;points=[[0,0.5],[1,0.5]];portConstraint=eastwest;dropTarget=0;" vertex="1" parent="QUsurqt3QCAF3f5tLPC3-1">
          <mxGeometry y="260" width="170" height="26" as="geometry" />
        </mxCell>
        <mxCell id="QUsurqt3QCAF3f5tLPC3-21" value="" style="shape=partialRectangle;top=0;left=0;bottom=0;fillColor=none;align=left;verticalAlign=middle;spacingLeft=4;spacingRight=4;overflow=hidden;rotatable=180;points=[];portConstraint=eastwest;part=1;" vertex="1" connectable="0" parent="QUsurqt3QCAF3f5tLPC3-20">
          <mxGeometry width="54" height="26" as="geometry" />
        </mxCell>
        <mxCell id="QUsurqt3QCAF3f5tLPC3-22" value="state" style="shape=partialRectangle;top=0;left=0;right=0;bottom=0;align=left;verticalAlign=top;spacingTop=-2;fillColor=none;spacingLeft=64;spacingRight=4;overflow=hidden;rotatable=0;points=[[0,0.5],[1,0.5]];portConstraint=eastwest;dropTarget=0;" vertex="1" parent="QUsurqt3QCAF3f5tLPC3-1">
          <mxGeometry y="286" width="170" height="26" as="geometry" />
        </mxCell>
        <mxCell id="QUsurqt3QCAF3f5tLPC3-23" value="" style="shape=partialRectangle;top=0;left=0;bottom=0;fillColor=none;align=left;verticalAlign=middle;spacingLeft=4;spacingRight=4;overflow=hidden;rotatable=180;points=[];portConstraint=eastwest;part=1;" vertex="1" connectable="0" parent="QUsurqt3QCAF3f5tLPC3-22">
          <mxGeometry width="54" height="26" as="geometry" />
        </mxCell>
        <mxCell id="QUsurqt3QCAF3f5tLPC3-24" value="signuptwo" style="swimlane;fontStyle=0;childLayout=stackLayout;horizontal=1;startSize=26;fillColor=default;horizontalStack=0;resizeParent=1;resizeLast=0;collapsible=1;marginBottom=0;swimlaneFillColor=default;align=center;" vertex="1" parent="1">
          <mxGeometry x="250" y="40" width="210" height="286" as="geometry" />
        </mxCell>
        <mxCell id="QUsurqt3QCAF3f5tLPC3-25" value="formno" style="shape=partialRectangle;top=0;left=0;right=0;bottom=0;align=left;verticalAlign=top;spacingTop=-2;fillColor=none;spacingLeft=64;spacingRight=4;overflow=hidden;rotatable=0;points=[[0,0.5],[1,0.5]];portConstraint=eastwest;dropTarget=0;" vertex="1" parent="QUsurqt3QCAF3f5tLPC3-24">
          <mxGeometry y="26" width="210" height="26" as="geometry" />
        </mxCell>
        <mxCell id="QUsurqt3QCAF3f5tLPC3-26" value="" style="shape=partialRectangle;top=0;left=0;bottom=0;fillColor=none;align=left;verticalAlign=middle;spacingLeft=4;spacingRight=4;overflow=hidden;rotatable=180;points=[];portConstraint=eastwest;part=1;" vertex="1" connectable="0" parent="QUsurqt3QCAF3f5tLPC3-25">
          <mxGeometry width="54" height="26" as="geometry" />
        </mxCell>
        <mxCell id="QUsurqt3QCAF3f5tLPC3-27" value="religion" style="shape=partialRectangle;top=0;left=0;right=0;bottom=0;align=left;verticalAlign=top;spacingTop=-2;fillColor=none;spacingLeft=64;spacingRight=4;overflow=hidden;rotatable=0;points=[[0,0.5],[1,0.5]];portConstraint=eastwest;dropTarget=0;" vertex="1" parent="QUsurqt3QCAF3f5tLPC3-24">
          <mxGeometry y="52" width="210" height="26" as="geometry" />
        </mxCell>
        <mxCell id="QUsurqt3QCAF3f5tLPC3-28" value="" style="shape=partialRectangle;top=0;left=0;bottom=0;fillColor=none;align=left;verticalAlign=middle;spacingLeft=4;spacingRight=4;overflow=hidden;rotatable=180;points=[];portConstraint=eastwest;part=1;" vertex="1" connectable="0" parent="QUsurqt3QCAF3f5tLPC3-27">
          <mxGeometry width="54" height="26" as="geometry" />
        </mxCell>
        <mxCell id="QUsurqt3QCAF3f5tLPC3-29" value="category" style="shape=partialRectangle;top=0;left=0;right=0;bottom=0;align=left;verticalAlign=top;spacingTop=-2;fillColor=none;spacingLeft=64;spacingRight=4;overflow=hidden;rotatable=0;points=[[0,0.5],[1,0.5]];portConstraint=eastwest;dropTarget=0;" vertex="1" parent="QUsurqt3QCAF3f5tLPC3-24">
          <mxGeometry y="78" width="210" height="26" as="geometry" />
        </mxCell>
        <mxCell id="QUsurqt3QCAF3f5tLPC3-30" value="" style="shape=partialRectangle;top=0;left=0;bottom=0;fillColor=none;align=left;verticalAlign=middle;spacingLeft=4;spacingRight=4;overflow=hidden;rotatable=180;points=[];portConstraint=eastwest;part=1;" vertex="1" connectable="0" parent="QUsurqt3QCAF3f5tLPC3-29">
          <mxGeometry width="54" height="26" as="geometry" />
        </mxCell>
        <mxCell id="QUsurqt3QCAF3f5tLPC3-31" value="income" style="shape=partialRectangle;top=0;left=0;right=0;bottom=0;align=left;verticalAlign=top;spacingTop=-2;fillColor=none;spacingLeft=64;spacingRight=4;overflow=hidden;rotatable=0;points=[[0,0.5],[1,0.5]];portConstraint=eastwest;dropTarget=0;" vertex="1" parent="QUsurqt3QCAF3f5tLPC3-24">
          <mxGeometry y="104" width="210" height="26" as="geometry" />
        </mxCell>
        <mxCell id="QUsurqt3QCAF3f5tLPC3-32" value="" style="shape=partialRectangle;top=0;left=0;bottom=0;fillColor=none;align=left;verticalAlign=middle;spacingLeft=4;spacingRight=4;overflow=hidden;rotatable=180;points=[];portConstraint=eastwest;part=1;" vertex="1" connectable="0" parent="QUsurqt3QCAF3f5tLPC3-31">
          <mxGeometry width="54" height="26" as="geometry" />
        </mxCell>
        <mxCell id="QUsurqt3QCAF3f5tLPC3-33" value="education" style="shape=partialRectangle;top=0;left=0;right=0;bottom=0;align=left;verticalAlign=top;spacingTop=-2;fillColor=none;spacingLeft=64;spacingRight=4;overflow=hidden;rotatable=0;points=[[0,0.5],[1,0.5]];portConstraint=eastwest;dropTarget=0;" vertex="1" parent="QUsurqt3QCAF3f5tLPC3-24">
          <mxGeometry y="130" width="210" height="26" as="geometry" />
        </mxCell>
        <mxCell id="QUsurqt3QCAF3f5tLPC3-34" value="" style="shape=partialRectangle;top=0;left=0;bottom=0;fillColor=none;align=left;verticalAlign=middle;spacingLeft=4;spacingRight=4;overflow=hidden;rotatable=180;points=[];portConstraint=eastwest;part=1;" vertex="1" connectable="0" parent="QUsurqt3QCAF3f5tLPC3-33">
          <mxGeometry width="54" height="26" as="geometry" />
        </mxCell>
        <mxCell id="QUsurqt3QCAF3f5tLPC3-35" value="occupation" style="shape=partialRectangle;top=0;left=0;right=0;bottom=0;align=left;verticalAlign=top;spacingTop=-2;fillColor=none;spacingLeft=64;spacingRight=4;overflow=hidden;rotatable=0;points=[[0,0.5],[1,0.5]];portConstraint=eastwest;dropTarget=0;" vertex="1" parent="QUsurqt3QCAF3f5tLPC3-24">
          <mxGeometry y="156" width="210" height="26" as="geometry" />
        </mxCell>
        <mxCell id="QUsurqt3QCAF3f5tLPC3-36" value="" style="shape=partialRectangle;top=0;left=0;bottom=0;fillColor=none;align=left;verticalAlign=middle;spacingLeft=4;spacingRight=4;overflow=hidden;rotatable=180;points=[];portConstraint=eastwest;part=1;" vertex="1" connectable="0" parent="QUsurqt3QCAF3f5tLPC3-35">
          <mxGeometry width="54" height="26" as="geometry" />
        </mxCell>
        <mxCell id="QUsurqt3QCAF3f5tLPC3-37" value="pan" style="shape=partialRectangle;top=0;left=0;right=0;bottom=0;align=left;verticalAlign=top;spacingTop=-2;fillColor=none;spacingLeft=64;spacingRight=4;overflow=hidden;rotatable=0;points=[[0,0.5],[1,0.5]];portConstraint=eastwest;dropTarget=0;" vertex="1" parent="QUsurqt3QCAF3f5tLPC3-24">
          <mxGeometry y="182" width="210" height="26" as="geometry" />
        </mxCell>
        <mxCell id="QUsurqt3QCAF3f5tLPC3-38" value="" style="shape=partialRectangle;top=0;left=0;bottom=0;fillColor=none;align=left;verticalAlign=middle;spacingLeft=4;spacingRight=4;overflow=hidden;rotatable=180;points=[];portConstraint=eastwest;part=1;" vertex="1" connectable="0" parent="QUsurqt3QCAF3f5tLPC3-37">
          <mxGeometry width="54" height="26" as="geometry" />
        </mxCell>
        <mxCell id="QUsurqt3QCAF3f5tLPC3-39" value="adhar" style="shape=partialRectangle;top=0;left=0;right=0;bottom=0;align=left;verticalAlign=top;spacingTop=-2;fillColor=none;spacingLeft=64;spacingRight=4;overflow=hidden;rotatable=0;points=[[0,0.5],[1,0.5]];portConstraint=eastwest;dropTarget=0;" vertex="1" parent="QUsurqt3QCAF3f5tLPC3-24">
          <mxGeometry y="208" width="210" height="26" as="geometry" />
        </mxCell>
        <mxCell id="QUsurqt3QCAF3f5tLPC3-40" value="" style="shape=partialRectangle;top=0;left=0;bottom=0;fillColor=none;align=left;verticalAlign=middle;spacingLeft=4;spacingRight=4;overflow=hidden;rotatable=180;points=[];portConstraint=eastwest;part=1;" vertex="1" connectable="0" parent="QUsurqt3QCAF3f5tLPC3-39">
          <mxGeometry width="54" height="26" as="geometry" />
        </mxCell>
        <mxCell id="QUsurqt3QCAF3f5tLPC3-41" value="seniorcitizen" style="shape=partialRectangle;top=0;left=0;right=0;bottom=0;align=left;verticalAlign=top;spacingTop=-2;fillColor=none;spacingLeft=64;spacingRight=4;overflow=hidden;rotatable=0;points=[[0,0.5],[1,0.5]];portConstraint=eastwest;dropTarget=0;" vertex="1" parent="QUsurqt3QCAF3f5tLPC3-24">
          <mxGeometry y="234" width="210" height="26" as="geometry" />
        </mxCell>
        <mxCell id="QUsurqt3QCAF3f5tLPC3-42" value="" style="shape=partialRectangle;top=0;left=0;bottom=0;fillColor=none;align=left;verticalAlign=middle;spacingLeft=4;spacingRight=4;overflow=hidden;rotatable=180;points=[];portConstraint=eastwest;part=1;" vertex="1" connectable="0" parent="QUsurqt3QCAF3f5tLPC3-41">
          <mxGeometry width="54" height="26" as="geometry" />
        </mxCell>
        <mxCell id="QUsurqt3QCAF3f5tLPC3-43" value="existingaccount" style="shape=partialRectangle;top=0;left=0;right=0;bottom=0;align=left;verticalAlign=top;spacingTop=-2;fillColor=none;spacingLeft=64;spacingRight=4;overflow=hidden;rotatable=0;points=[[0,0.5],[1,0.5]];portConstraint=eastwest;dropTarget=0;" vertex="1" parent="QUsurqt3QCAF3f5tLPC3-24">
          <mxGeometry y="260" width="210" height="26" as="geometry" />
        </mxCell>
        <mxCell id="QUsurqt3QCAF3f5tLPC3-44" value="" style="shape=partialRectangle;top=0;left=0;bottom=0;fillColor=none;align=left;verticalAlign=middle;spacingLeft=4;spacingRight=4;overflow=hidden;rotatable=180;points=[];portConstraint=eastwest;part=1;" vertex="1" connectable="0" parent="QUsurqt3QCAF3f5tLPC3-43">
          <mxGeometry width="54" height="26" as="geometry" />
        </mxCell>
        <mxCell id="QUsurqt3QCAF3f5tLPC3-45" value="signupthree" style="swimlane;fontStyle=0;childLayout=stackLayout;horizontal=1;startSize=26;fillColor=default;horizontalStack=0;resizeParent=1;resizeLast=0;collapsible=1;marginBottom=0;swimlaneFillColor=default;align=center;" vertex="1" parent="1">
          <mxGeometry x="500" y="70" width="270" height="156" as="geometry" />
        </mxCell>
        <mxCell id="QUsurqt3QCAF3f5tLPC3-46" value="formno" style="shape=partialRectangle;top=0;left=0;right=0;bottom=0;align=left;verticalAlign=top;spacingTop=-2;fillColor=none;spacingLeft=64;spacingRight=4;overflow=hidden;rotatable=0;points=[[0,0.5],[1,0.5]];portConstraint=eastwest;dropTarget=0;" vertex="1" parent="QUsurqt3QCAF3f5tLPC3-45">
          <mxGeometry y="26" width="270" height="26" as="geometry" />
        </mxCell>
        <mxCell id="QUsurqt3QCAF3f5tLPC3-47" value="" style="shape=partialRectangle;top=0;left=0;bottom=0;fillColor=none;align=left;verticalAlign=middle;spacingLeft=4;spacingRight=4;overflow=hidden;rotatable=180;points=[];portConstraint=eastwest;part=1;" vertex="1" connectable="0" parent="QUsurqt3QCAF3f5tLPC3-46">
          <mxGeometry width="54" height="26" as="geometry" />
        </mxCell>
        <mxCell id="QUsurqt3QCAF3f5tLPC3-48" value="accoun_type" style="shape=partialRectangle;top=0;left=0;right=0;bottom=0;align=left;verticalAlign=top;spacingTop=-2;fillColor=none;spacingLeft=64;spacingRight=4;overflow=hidden;rotatable=0;points=[[0,0.5],[1,0.5]];portConstraint=eastwest;dropTarget=0;" vertex="1" parent="QUsurqt3QCAF3f5tLPC3-45">
          <mxGeometry y="52" width="270" height="26" as="geometry" />
        </mxCell>
        <mxCell id="QUsurqt3QCAF3f5tLPC3-49" value="" style="shape=partialRectangle;top=0;left=0;bottom=0;fillColor=none;align=left;verticalAlign=middle;spacingLeft=4;spacingRight=4;overflow=hidden;rotatable=180;points=[];portConstraint=eastwest;part=1;" vertex="1" connectable="0" parent="QUsurqt3QCAF3f5tLPC3-48">
          <mxGeometry width="54" height="26" as="geometry" />
        </mxCell>
        <mxCell id="QUsurqt3QCAF3f5tLPC3-50" value="card_number" style="shape=partialRectangle;top=0;left=0;right=0;bottom=0;align=left;verticalAlign=top;spacingTop=-2;fillColor=none;spacingLeft=64;spacingRight=4;overflow=hidden;rotatable=0;points=[[0,0.5],[1,0.5]];portConstraint=eastwest;dropTarget=0;" vertex="1" parent="QUsurqt3QCAF3f5tLPC3-45">
          <mxGeometry y="78" width="270" height="26" as="geometry" />
        </mxCell>
        <mxCell id="QUsurqt3QCAF3f5tLPC3-51" value="" style="shape=partialRectangle;top=0;left=0;bottom=0;fillColor=none;align=left;verticalAlign=middle;spacingLeft=4;spacingRight=4;overflow=hidden;rotatable=180;points=[];portConstraint=eastwest;part=1;" vertex="1" connectable="0" parent="QUsurqt3QCAF3f5tLPC3-50">
          <mxGeometry width="54" height="26" as="geometry" />
        </mxCell>
        <mxCell id="QUsurqt3QCAF3f5tLPC3-52" value="pin_number" style="shape=partialRectangle;top=0;left=0;right=0;bottom=0;align=left;verticalAlign=top;spacingTop=-2;fillColor=none;spacingLeft=64;spacingRight=4;overflow=hidden;rotatable=0;points=[[0,0.5],[1,0.5]];portConstraint=eastwest;dropTarget=0;" vertex="1" parent="QUsurqt3QCAF3f5tLPC3-45">
          <mxGeometry y="104" width="270" height="26" as="geometry" />
        </mxCell>
        <mxCell id="QUsurqt3QCAF3f5tLPC3-53" value="" style="shape=partialRectangle;top=0;left=0;bottom=0;fillColor=none;align=left;verticalAlign=middle;spacingLeft=4;spacingRight=4;overflow=hidden;rotatable=180;points=[];portConstraint=eastwest;part=1;" vertex="1" connectable="0" parent="QUsurqt3QCAF3f5tLPC3-52">
          <mxGeometry width="54" height="26" as="geometry" />
        </mxCell>
        <mxCell id="QUsurqt3QCAF3f5tLPC3-54" value="facilities" style="shape=partialRectangle;top=0;left=0;right=0;bottom=0;align=left;verticalAlign=top;spacingTop=-2;fillColor=none;spacingLeft=64;spacingRight=4;overflow=hidden;rotatable=0;points=[[0,0.5],[1,0.5]];portConstraint=eastwest;dropTarget=0;" vertex="1" parent="QUsurqt3QCAF3f5tLPC3-45">
          <mxGeometry y="130" width="270" height="26" as="geometry" />
        </mxCell>
        <mxCell id="QUsurqt3QCAF3f5tLPC3-55" value="" style="shape=partialRectangle;top=0;left=0;bottom=0;fillColor=none;align=left;verticalAlign=middle;spacingLeft=4;spacingRight=4;overflow=hidden;rotatable=180;points=[];portConstraint=eastwest;part=1;" vertex="1" connectable="0" parent="QUsurqt3QCAF3f5tLPC3-54">
          <mxGeometry width="54" height="26" as="geometry" />
        </mxCell>
        <mxCell id="QUsurqt3QCAF3f5tLPC3-56" value="login" style="swimlane;fontStyle=0;childLayout=stackLayout;horizontal=1;startSize=26;fillColor=default;horizontalStack=0;resizeParent=1;resizeLast=0;collapsible=1;marginBottom=0;swimlaneFillColor=default;align=center;" vertex="1" parent="1">
          <mxGeometry x="930" y="50" width="230" height="130" as="geometry" />
        </mxCell>
        <mxCell id="QUsurqt3QCAF3f5tLPC3-57" value="formno" style="shape=partialRectangle;top=0;left=0;right=0;bottom=0;align=left;verticalAlign=top;spacingTop=-2;fillColor=none;spacingLeft=64;spacingRight=4;overflow=hidden;rotatable=0;points=[[0,0.5],[1,0.5]];portConstraint=eastwest;dropTarget=0;" vertex="1" parent="QUsurqt3QCAF3f5tLPC3-56">
          <mxGeometry y="26" width="230" height="26" as="geometry" />
        </mxCell>
        <mxCell id="QUsurqt3QCAF3f5tLPC3-58" value="" style="shape=partialRectangle;top=0;left=0;bottom=0;fillColor=none;align=left;verticalAlign=middle;spacingLeft=4;spacingRight=4;overflow=hidden;rotatable=180;points=[];portConstraint=eastwest;part=1;" vertex="1" connectable="0" parent="QUsurqt3QCAF3f5tLPC3-57">
          <mxGeometry width="54" height="26" as="geometry" />
        </mxCell>
        <mxCell id="QUsurqt3QCAF3f5tLPC3-59" value="card_number" style="shape=partialRectangle;top=0;left=0;right=0;bottom=0;align=left;verticalAlign=top;spacingTop=-2;fillColor=none;spacingLeft=64;spacingRight=4;overflow=hidden;rotatable=0;points=[[0,0.5],[1,0.5]];portConstraint=eastwest;dropTarget=0;" vertex="1" parent="QUsurqt3QCAF3f5tLPC3-56">
          <mxGeometry y="52" width="230" height="26" as="geometry" />
        </mxCell>
        <mxCell id="QUsurqt3QCAF3f5tLPC3-60" value="" style="shape=partialRectangle;top=0;left=0;bottom=0;fillColor=none;align=left;verticalAlign=middle;spacingLeft=4;spacingRight=4;overflow=hidden;rotatable=180;points=[];portConstraint=eastwest;part=1;" vertex="1" connectable="0" parent="QUsurqt3QCAF3f5tLPC3-59">
          <mxGeometry width="54" height="26" as="geometry" />
        </mxCell>
        <mxCell id="QUsurqt3QCAF3f5tLPC3-77" value="card_number" style="shape=partialRectangle;top=0;left=0;right=0;bottom=0;align=left;verticalAlign=top;spacingTop=-2;fillColor=none;spacingLeft=64;spacingRight=4;overflow=hidden;rotatable=0;points=[[0,0.5],[1,0.5]];portConstraint=eastwest;dropTarget=0;" vertex="1" parent="QUsurqt3QCAF3f5tLPC3-56">
          <mxGeometry y="78" width="230" height="26" as="geometry" />
        </mxCell>
        <mxCell id="QUsurqt3QCAF3f5tLPC3-78" value="" style="shape=partialRectangle;top=0;left=0;bottom=0;fillColor=none;align=left;verticalAlign=middle;spacingLeft=4;spacingRight=4;overflow=hidden;rotatable=180;points=[];portConstraint=eastwest;part=1;" vertex="1" connectable="0" parent="QUsurqt3QCAF3f5tLPC3-77">
          <mxGeometry width="54" height="26" as="geometry" />
        </mxCell>
        <mxCell id="QUsurqt3QCAF3f5tLPC3-61" value="pin_number" style="shape=partialRectangle;top=0;left=0;right=0;bottom=0;align=left;verticalAlign=top;spacingTop=-2;fillColor=none;spacingLeft=64;spacingRight=4;overflow=hidden;rotatable=0;points=[[0,0.5],[1,0.5]];portConstraint=eastwest;dropTarget=0;" vertex="1" parent="QUsurqt3QCAF3f5tLPC3-56">
          <mxGeometry y="104" width="230" height="26" as="geometry" />
        </mxCell>
        <mxCell id="QUsurqt3QCAF3f5tLPC3-62" value="" style="shape=partialRectangle;top=0;left=0;bottom=0;fillColor=none;align=left;verticalAlign=middle;spacingLeft=4;spacingRight=4;overflow=hidden;rotatable=180;points=[];portConstraint=eastwest;part=1;" vertex="1" connectable="0" parent="QUsurqt3QCAF3f5tLPC3-61">
          <mxGeometry width="54" height="26" as="geometry" />
        </mxCell>
        <mxCell id="QUsurqt3QCAF3f5tLPC3-63" value="bank" style="swimlane;fontStyle=0;childLayout=stackLayout;horizontal=1;startSize=26;fillColor=default;horizontalStack=0;resizeParent=1;resizeLast=0;collapsible=1;marginBottom=0;swimlaneFillColor=default;align=center;" vertex="1" parent="1">
          <mxGeometry x="780" y="352" width="250" height="130" as="geometry" />
        </mxCell>
        <mxCell id="QUsurqt3QCAF3f5tLPC3-64" value="pin" style="shape=partialRectangle;top=0;left=0;right=0;bottom=0;align=left;verticalAlign=top;spacingTop=-2;fillColor=none;spacingLeft=64;spacingRight=4;overflow=hidden;rotatable=0;points=[[0,0.5],[1,0.5]];portConstraint=eastwest;dropTarget=0;" vertex="1" parent="QUsurqt3QCAF3f5tLPC3-63">
          <mxGeometry y="26" width="250" height="26" as="geometry" />
        </mxCell>
        <mxCell id="QUsurqt3QCAF3f5tLPC3-65" value="" style="shape=partialRectangle;top=0;left=0;bottom=0;fillColor=none;align=left;verticalAlign=middle;spacingLeft=4;spacingRight=4;overflow=hidden;rotatable=180;points=[];portConstraint=eastwest;part=1;" vertex="1" connectable="0" parent="QUsurqt3QCAF3f5tLPC3-64">
          <mxGeometry width="54" height="26" as="geometry" />
        </mxCell>
        <mxCell id="QUsurqt3QCAF3f5tLPC3-66" value="date" style="shape=partialRectangle;top=0;left=0;right=0;bottom=0;align=left;verticalAlign=top;spacingTop=-2;fillColor=none;spacingLeft=64;spacingRight=4;overflow=hidden;rotatable=0;points=[[0,0.5],[1,0.5]];portConstraint=eastwest;dropTarget=0;" vertex="1" parent="QUsurqt3QCAF3f5tLPC3-63">
          <mxGeometry y="52" width="250" height="26" as="geometry" />
        </mxCell>
        <mxCell id="QUsurqt3QCAF3f5tLPC3-67" value="" style="shape=partialRectangle;top=0;left=0;bottom=0;fillColor=none;align=left;verticalAlign=middle;spacingLeft=4;spacingRight=4;overflow=hidden;rotatable=180;points=[];portConstraint=eastwest;part=1;" vertex="1" connectable="0" parent="QUsurqt3QCAF3f5tLPC3-66">
          <mxGeometry width="54" height="26" as="geometry" />
        </mxCell>
        <mxCell id="QUsurqt3QCAF3f5tLPC3-68" value="type" style="shape=partialRectangle;top=0;left=0;right=0;bottom=0;align=left;verticalAlign=top;spacingTop=-2;fillColor=none;spacingLeft=64;spacingRight=4;overflow=hidden;rotatable=0;points=[[0,0.5],[1,0.5]];portConstraint=eastwest;dropTarget=0;" vertex="1" parent="QUsurqt3QCAF3f5tLPC3-63">
          <mxGeometry y="78" width="250" height="26" as="geometry" />
        </mxCell>
        <mxCell id="QUsurqt3QCAF3f5tLPC3-69" value="" style="shape=partialRectangle;top=0;left=0;bottom=0;fillColor=none;align=left;verticalAlign=middle;spacingLeft=4;spacingRight=4;overflow=hidden;rotatable=180;points=[];portConstraint=eastwest;part=1;" vertex="1" connectable="0" parent="QUsurqt3QCAF3f5tLPC3-68">
          <mxGeometry width="54" height="26" as="geometry" />
        </mxCell>
        <mxCell id="QUsurqt3QCAF3f5tLPC3-70" value="amount" style="shape=partialRectangle;top=0;left=0;right=0;bottom=0;align=left;verticalAlign=top;spacingTop=-2;fillColor=none;spacingLeft=64;spacingRight=4;overflow=hidden;rotatable=0;points=[[0,0.5],[1,0.5]];portConstraint=eastwest;dropTarget=0;" vertex="1" parent="QUsurqt3QCAF3f5tLPC3-63">
          <mxGeometry y="104" width="250" height="26" as="geometry" />
        </mxCell>
        <mxCell id="QUsurqt3QCAF3f5tLPC3-71" value="" style="shape=partialRectangle;top=0;left=0;bottom=0;fillColor=none;align=left;verticalAlign=middle;spacingLeft=4;spacingRight=4;overflow=hidden;rotatable=180;points=[];portConstraint=eastwest;part=1;" vertex="1" connectable="0" parent="QUsurqt3QCAF3f5tLPC3-70">
          <mxGeometry width="54" height="26" as="geometry" />
        </mxCell>
        <mxCell id="QUsurqt3QCAF3f5tLPC3-72" value="" style="edgeStyle=orthogonalEdgeStyle;rounded=0;orthogonalLoop=1;jettySize=auto;html=1;" edge="1" parent="1" source="QUsurqt3QCAF3f5tLPC3-12" target="QUsurqt3QCAF3f5tLPC3-39">
          <mxGeometry relative="1" as="geometry" />
        </mxCell>
        <mxCell id="QUsurqt3QCAF3f5tLPC3-73" value="" style="edgeStyle=orthogonalEdgeStyle;rounded=0;orthogonalLoop=1;jettySize=auto;html=1;" edge="1" parent="1" source="QUsurqt3QCAF3f5tLPC3-33" target="QUsurqt3QCAF3f5tLPC3-54">
          <mxGeometry relative="1" as="geometry" />
        </mxCell>
        <mxCell id="QUsurqt3QCAF3f5tLPC3-76" value="" style="edgeStyle=orthogonalEdgeStyle;rounded=0;orthogonalLoop=1;jettySize=auto;html=1;" edge="1" parent="1" source="QUsurqt3QCAF3f5tLPC3-52" target="QUsurqt3QCAF3f5tLPC3-66">
          <mxGeometry relative="1" as="geometry" />
        </mxCell>
        <mxCell id="QUsurqt3QCAF3f5tLPC3-85" style="edgeStyle=orthogonalEdgeStyle;rounded=0;orthogonalLoop=1;jettySize=auto;html=1;entryX=0.75;entryY=0;entryDx=0;entryDy=0;" edge="1" parent="1" source="QUsurqt3QCAF3f5tLPC3-77" target="QUsurqt3QCAF3f5tLPC3-63">
          <mxGeometry relative="1" as="geometry" />
        </mxCell>
        <mxCell id="QUsurqt3QCAF3f5tLPC3-86" style="edgeStyle=orthogonalEdgeStyle;rounded=0;orthogonalLoop=1;jettySize=auto;html=1;entryX=-0.01;entryY=-0.088;entryDx=0;entryDy=0;entryPerimeter=0;" edge="1" parent="1" source="QUsurqt3QCAF3f5tLPC3-48" target="QUsurqt3QCAF3f5tLPC3-59">
          <mxGeometry relative="1" as="geometry" />
        </mxCell>
      </root>
    </mxGraphModel>
  </diagram>
</mxfile>
